<svg width="227" height="30" viewBox="0 0 227 30" fill="none" xmlns="http://www.w3.org/2000/svg">
<path d="M226.139 19.7249C226.139 20.5056 225.913 21.2395 225.46 21.9265C225.026 22.6135 224.374 23.1913 223.506 23.6597C222.655 24.1281 221.642 24.4092 220.465 24.5029V26.4H218.701V24.5029C217 24.3623 215.624 23.9017 214.574 23.121C213.525 22.3403 213 21.3098 213 20.0294H216.312C216.366 20.6383 216.592 21.1458 216.991 21.5518C217.389 21.9421 217.959 22.192 218.701 22.3013V17.1486C217.488 16.8831 216.502 16.6177 215.742 16.3522C214.982 16.0712 214.33 15.634 213.787 15.0406C213.262 14.4473 213 13.6354 213 12.6048C213 11.3088 213.525 10.2393 214.574 9.3961C215.624 8.53731 217 8.03766 218.701 7.89713V6H220.465V7.89713C222.058 8.02204 223.334 8.45924 224.293 9.20873C225.27 9.9426 225.822 10.9575 225.949 12.2535H222.637C222.583 11.7695 222.366 11.3401 221.985 10.9653C221.605 10.575 221.099 10.3095 220.465 10.169V15.228C221.678 15.4778 222.664 15.7433 223.424 16.0243C224.184 16.2898 224.827 16.7192 225.352 17.3125C225.876 17.8902 226.139 18.6944 226.139 19.7249ZM216.149 12.4643C216.149 13.1045 216.366 13.6041 216.801 13.9633C217.253 14.3224 217.886 14.6113 218.701 14.8299V10.0987C217.923 10.1768 217.298 10.4188 216.828 10.8248C216.375 11.2308 216.149 11.7773 216.149 12.4643ZM220.465 22.3013C221.262 22.192 221.886 21.9187 222.338 21.4815C222.791 21.0287 223.017 20.49 223.017 19.8654C223.017 19.2409 222.791 18.7568 222.338 18.4133C221.904 18.0542 221.28 17.7653 220.465 17.5467V22.3013Z" fill="#49AA26"/>
<path d="M1.00293 17.0303C1.00293 14.9144 1.49382 13.2174 2.47559 11.9395C3.45736 10.653 4.77344 10.0098 6.42383 10.0098C7.87956 10.0098 9.05599 10.5176 9.95312 11.5332V4.5H13.0381V24H10.2451L10.0928 22.5781C9.17025 23.6953 7.9388 24.2539 6.39844 24.2539C4.79036 24.2539 3.48698 23.6064 2.48828 22.3115C1.49805 21.0166 1.00293 19.2562 1.00293 17.0303ZM4.08789 17.2969C4.08789 18.6934 4.35449 19.7852 4.8877 20.5723C5.42936 21.3509 6.19531 21.7402 7.18555 21.7402C8.44661 21.7402 9.36914 21.1774 9.95312 20.0518V14.1865C9.38607 13.0863 8.47201 12.5361 7.21094 12.5361C6.21224 12.5361 5.44206 12.9339 4.90039 13.7295C4.35872 14.5166 4.08789 15.7057 4.08789 17.2969ZM18.6281 24H15.5431V10.2637H18.6281V24ZM15.3527 6.69629C15.3527 6.22233 15.5008 5.82878 15.797 5.51562C16.1017 5.20247 16.5334 5.0459 17.092 5.0459C17.6505 5.0459 18.0822 5.20247 18.3869 5.51562C18.6916 5.82878 18.8439 6.22233 18.8439 6.69629C18.8439 7.16178 18.6916 7.55111 18.3869 7.86426C18.0822 8.16895 17.6505 8.32129 17.092 8.32129C16.5334 8.32129 16.1017 8.16895 15.797 7.86426C15.5008 7.55111 15.3527 7.16178 15.3527 6.69629ZM29.2962 24C29.1608 23.7376 29.0423 23.3102 28.9407 22.7178C27.959 23.7419 26.7571 24.2539 25.3353 24.2539C23.9557 24.2539 22.8301 23.8604 21.9583 23.0732C21.0866 22.2861 20.6507 21.3128 20.6507 20.1533C20.6507 18.6891 21.1924 17.5677 22.2757 16.7891C23.3675 16.002 24.9248 15.6084 26.9476 15.6084H28.8392V14.707C28.8392 13.9961 28.6403 13.429 28.2425 13.0059C27.8447 12.5742 27.2396 12.3584 26.4271 12.3584C25.7246 12.3584 25.1491 12.5361 24.7005 12.8916C24.2519 13.2386 24.0277 13.6829 24.0277 14.2246H20.9427C20.9427 13.4714 21.1924 12.7689 21.6917 12.1172C22.1911 11.457 22.8682 10.9408 23.723 10.5684C24.5863 10.196 25.5469 10.0098 26.6048 10.0098C28.2129 10.0098 29.4951 10.416 30.4515 11.2285C31.4079 12.0326 31.8988 13.1667 31.9241 14.6309V20.8262C31.9241 22.0618 32.0976 23.0479 32.4446 23.7842V24H29.2962ZM25.9066 21.7783C26.5159 21.7783 27.0872 21.6302 27.6204 21.334C28.1621 21.0378 28.5683 20.64 28.8392 20.1406V17.5508H27.1761C26.0335 17.5508 25.1745 17.7497 24.5989 18.1475C24.0234 18.5452 23.7357 19.1081 23.7357 19.8359C23.7357 20.4284 23.9303 20.9023 24.3196 21.2578C24.7174 21.6048 25.2464 21.7783 25.9066 21.7783ZM41.9448 20.2676C41.9448 19.7174 41.7163 19.2985 41.2593 19.0107C40.8107 18.723 40.0617 18.4691 39.0122 18.249C37.9627 18.029 37.0867 17.7497 36.3843 17.4111C34.8439 16.6663 34.0737 15.5872 34.0737 14.1738C34.0737 12.9889 34.5731 11.9987 35.5718 11.2031C36.5705 10.4076 37.84 10.0098 39.3804 10.0098C41.0223 10.0098 42.3468 10.416 43.354 11.2285C44.3696 12.041 44.8774 13.0947 44.8774 14.3896H41.7925C41.7925 13.7972 41.5724 13.3063 41.1323 12.917C40.6922 12.5192 40.1082 12.3203 39.3804 12.3203C38.7033 12.3203 38.1489 12.4769 37.7173 12.79C37.2941 13.1032 37.0825 13.5221 37.0825 14.0469C37.0825 14.5208 37.2814 14.889 37.6792 15.1514C38.077 15.4137 38.881 15.6803 40.0913 15.9512C41.3016 16.2135 42.2495 16.5309 42.935 16.9033C43.629 17.2673 44.1411 17.7074 44.4712 18.2236C44.8097 18.7399 44.979 19.3662 44.979 20.1025C44.979 21.3382 44.4669 22.3411 43.4429 23.1113C42.4188 23.873 41.0773 24.2539 39.4184 24.2539C38.2928 24.2539 37.2899 24.0508 36.4096 23.6445C35.5294 23.2383 34.8439 22.6797 34.353 21.9688C33.8621 21.2578 33.6167 20.4919 33.6167 19.6709H36.6128C36.6551 20.3988 36.9302 20.9616 37.438 21.3594C37.9458 21.7487 38.6186 21.9434 39.4565 21.9434C40.269 21.9434 40.8869 21.791 41.31 21.4863C41.7332 21.1732 41.9448 20.7669 41.9448 20.2676ZM48.6901 20.75C49.2656 20.75 49.7099 20.915 50.0231 21.2451C50.3362 21.5667 50.4928 21.973 50.4928 22.4639C50.4928 22.9463 50.3362 23.3483 50.0231 23.6699C49.7099 23.9831 49.2656 24.1396 48.6901 24.1396C48.1399 24.1396 47.7041 23.9831 47.3825 23.6699C47.0608 23.3568 46.9 22.9548 46.9 22.4639C46.9 21.973 47.0566 21.5667 47.3698 21.2451C47.6829 20.915 48.123 20.75 48.6901 20.75ZM58.7615 21.791C59.5317 21.791 60.1707 21.5667 60.6785 21.1182C61.1863 20.6696 61.4572 20.1152 61.491 19.4551H64.3982C64.3644 20.3099 64.0978 21.1097 63.5984 21.8545C63.0991 22.5908 62.422 23.1748 61.5672 23.6064C60.7124 24.0381 59.7898 24.2539 58.7996 24.2539C56.8784 24.2539 55.3549 23.6318 54.2293 22.3877C53.1036 21.1436 52.5408 19.4255 52.5408 17.2334V16.916C52.5408 14.8255 53.0994 13.154 54.2166 11.9014C55.3338 10.6403 56.8572 10.0098 58.7869 10.0098C60.4204 10.0098 61.7492 10.488 62.7732 11.4443C63.8058 12.3923 64.3475 13.6406 64.3982 15.1895H61.491C61.4572 14.4023 61.1863 13.7549 60.6785 13.2471C60.1792 12.7393 59.5402 12.4854 58.7615 12.4854C57.7628 12.4854 56.9926 12.8493 56.451 13.5771C55.9093 14.2965 55.6342 15.3926 55.6258 16.8652V17.3604C55.6258 18.8499 55.8924 19.9629 56.4256 20.6992C56.9673 21.4271 57.7459 21.791 58.7615 21.791ZM65.2402 17.0049C65.2402 15.6592 65.5068 14.4489 66.04 13.374C66.5732 12.2907 67.3222 11.4613 68.2871 10.8857C69.2519 10.3018 70.3606 10.0098 71.6132 10.0098C73.4668 10.0098 74.969 10.6064 76.1201 11.7998C77.2796 12.9932 77.9059 14.5758 77.999 16.5479L78.0117 17.2715C78.0117 18.6257 77.7493 19.8359 77.2246 20.9023C76.7083 21.9688 75.9635 22.7939 74.9902 23.3779C74.0254 23.9619 72.9082 24.2539 71.6386 24.2539C69.7005 24.2539 68.1474 23.6107 66.9795 22.3242C65.8199 21.0293 65.2402 19.307 65.2402 17.1572V17.0049ZM68.3252 17.2715C68.3252 18.6849 68.6171 19.7936 69.2011 20.5977C69.7851 21.3932 70.5976 21.791 71.6386 21.791C72.6796 21.791 73.4879 21.3848 74.0634 20.5723C74.6474 19.7598 74.9394 18.5706 74.9394 17.0049C74.9394 15.6169 74.639 14.5166 74.038 13.7041C73.4456 12.8916 72.6373 12.4854 71.6132 12.4854C70.6061 12.4854 69.8063 12.8874 69.2138 13.6914C68.6214 14.487 68.3252 15.6803 68.3252 17.2715ZM82.5734 10.2637L82.6622 11.8506C83.6778 10.6234 85.0109 10.0098 86.6612 10.0098C89.5219 10.0098 90.9777 11.6475 91.0284 14.9229V24H87.9435V15.1006C87.9435 14.2288 87.753 13.5856 87.3722 13.1709C86.9998 12.7477 86.3862 12.5361 85.5314 12.5361C84.2872 12.5361 83.3605 13.099 82.7511 14.2246V24H79.6661V10.2637H82.5734ZM97.1389 6.9248V10.2637H99.5638V12.5488H97.1389V20.2168C97.1389 20.7415 97.2405 21.1224 97.4436 21.3594C97.6552 21.5879 98.0276 21.7021 98.5608 21.7021C98.9163 21.7021 99.276 21.6598 99.6399 21.5752V23.9619C98.9374 24.1566 98.2604 24.2539 97.6087 24.2539C95.2389 24.2539 94.054 22.9463 94.054 20.3311V12.5488H91.7942V10.2637H94.054V6.9248H97.1389ZM108.213 13.082C107.807 13.0143 107.388 12.9805 106.956 12.9805C105.543 12.9805 104.591 13.5221 104.1 14.6055V24H101.015V10.2637H103.96L104.037 11.7998C104.781 10.6064 105.814 10.0098 107.134 10.0098C107.574 10.0098 107.938 10.069 108.226 10.1875L108.213 13.082ZM108.217 17.0049C108.217 15.6592 108.484 14.4489 109.017 13.374C109.55 12.2907 110.299 11.4613 111.264 10.8857C112.229 10.3018 113.338 10.0098 114.59 10.0098C116.444 10.0098 117.946 10.6064 119.097 11.7998C120.257 12.9932 120.883 14.5758 120.976 16.5479L120.989 17.2715C120.989 18.6257 120.726 19.8359 120.202 20.9023C119.685 21.9688 118.941 22.7939 117.967 23.3779C117.003 23.9619 115.885 24.2539 114.616 24.2539C112.678 24.2539 111.125 23.6107 109.957 22.3242C108.797 21.0293 108.217 19.307 108.217 17.1572V17.0049ZM111.302 17.2715C111.302 18.6849 111.594 19.7936 112.178 20.5977C112.762 21.3932 113.575 21.791 114.616 21.791C115.657 21.791 116.465 21.3848 117.041 20.5723C117.625 19.7598 117.917 18.5706 117.917 17.0049C117.917 15.6169 117.616 14.5166 117.015 13.7041C116.423 12.8916 115.615 12.4854 114.59 12.4854C113.583 12.4854 112.783 12.8874 112.191 13.6914C111.599 14.487 111.302 15.6803 111.302 17.2715ZM125.969 24H122.885V4.5H125.969V24ZM139.38 16.167H131.94V24H128.728V5.51562H140.472V8.10547H131.94V13.6025H139.38V16.167ZM145.097 24H142.012V10.2637H145.097V24ZM141.821 6.69629C141.821 6.22233 141.969 5.82878 142.266 5.51562C142.57 5.20247 143.002 5.0459 143.561 5.0459C144.119 5.0459 144.551 5.20247 144.856 5.51562C145.16 5.82878 145.313 6.22233 145.313 6.69629C145.313 7.16178 145.16 7.55111 144.856 7.86426C144.551 8.16895 144.119 8.32129 143.561 8.32129C143.002 8.32129 142.57 8.16895 142.266 7.86426C141.969 7.55111 141.821 7.16178 141.821 6.69629ZM150.42 10.2637L150.509 11.8506C151.525 10.6234 152.858 10.0098 154.508 10.0098C157.369 10.0098 158.824 11.6475 158.875 14.9229V24H155.79V15.1006C155.79 14.2288 155.6 13.5856 155.219 13.1709C154.847 12.7477 154.233 12.5361 153.378 12.5361C152.134 12.5361 151.207 13.099 150.598 14.2246V24H147.513V10.2637H150.42ZM169.328 24C169.192 23.7376 169.074 23.3102 168.972 22.7178C167.99 23.7419 166.788 24.2539 165.367 24.2539C163.987 24.2539 162.861 23.8604 161.99 23.0732C161.118 22.2861 160.682 21.3128 160.682 20.1533C160.682 18.6891 161.224 17.5677 162.307 16.7891C163.399 16.002 164.956 15.6084 166.979 15.6084H168.871V14.707C168.871 13.9961 168.672 13.429 168.274 13.0059C167.876 12.5742 167.271 12.3584 166.458 12.3584C165.756 12.3584 165.18 12.5361 164.732 12.8916C164.283 13.2386 164.059 13.6829 164.059 14.2246H160.974C160.974 13.4714 161.224 12.7689 161.723 12.1172C162.222 11.457 162.899 10.9408 163.754 10.5684C164.618 10.196 165.578 10.0098 166.636 10.0098C168.244 10.0098 169.526 10.416 170.483 11.2285C171.439 12.0326 171.93 13.1667 171.955 14.6309V20.8262C171.955 22.0618 172.129 23.0479 172.476 23.7842V24H169.328ZM165.938 21.7783C166.547 21.7783 167.119 21.6302 167.652 21.334C168.193 21.0378 168.6 20.64 168.871 20.1406V17.5508H167.207C166.065 17.5508 165.206 17.7497 164.63 18.1475C164.055 18.5452 163.767 19.1081 163.767 19.8359C163.767 20.4284 163.962 20.9023 164.351 21.2578C164.749 21.6048 165.278 21.7783 165.938 21.7783ZM177.139 10.2637L177.228 11.8506C178.244 10.6234 179.577 10.0098 181.227 10.0098C184.088 10.0098 185.544 11.6475 185.594 14.9229V24H182.509V15.1006C182.509 14.2288 182.319 13.5856 181.938 13.1709C181.566 12.7477 180.952 12.5361 180.097 12.5361C178.853 12.5361 177.926 13.099 177.317 14.2246V24H174.232V10.2637H177.139ZM193.482 21.791C194.252 21.791 194.891 21.5667 195.399 21.1182C195.907 20.6696 196.178 20.1152 196.212 19.4551H199.119C199.085 20.3099 198.818 21.1097 198.319 21.8545C197.82 22.5908 197.143 23.1748 196.288 23.6064C195.433 24.0381 194.51 24.2539 193.52 24.2539C191.599 24.2539 190.076 23.6318 188.95 22.3877C187.824 21.1436 187.261 19.4255 187.261 17.2334V16.916C187.261 14.8255 187.82 13.154 188.937 11.9014C190.054 10.6403 191.578 10.0098 193.508 10.0098C195.141 10.0098 196.47 10.488 197.494 11.4443C198.526 12.3923 199.068 13.6406 199.119 15.1895H196.212C196.178 14.4023 195.907 13.7549 195.399 13.2471C194.9 12.7393 194.261 12.4854 193.482 12.4854C192.483 12.4854 191.713 12.8493 191.172 13.5771C190.63 14.2965 190.355 15.3926 190.346 16.8652V17.3604C190.346 18.8499 190.613 19.9629 191.146 20.6992C191.688 21.4271 192.467 21.791 193.482 21.791ZM206.588 24.2539C204.633 24.2539 203.046 23.6403 201.827 22.4131C200.617 21.1774 200.012 19.5355 200.012 17.4873V17.1064C200.012 15.7354 200.274 14.5124 200.799 13.4375C201.332 12.3542 202.077 11.512 203.033 10.9111C203.989 10.3102 205.056 10.0098 206.232 10.0098C208.103 10.0098 209.546 10.6064 210.561 11.7998C211.585 12.9932 212.098 14.6816 212.098 16.8652V18.1094H203.122C203.215 19.2435 203.592 20.1406 204.252 20.8008C204.92 21.4609 205.758 21.791 206.766 21.791C208.179 21.791 209.33 21.2197 210.219 20.0771L211.882 21.6641C211.332 22.485 210.595 23.124 209.673 23.5811C208.759 24.0296 207.73 24.2539 206.588 24.2539ZM206.22 12.4854C205.373 12.4854 204.688 12.7816 204.163 13.374C203.647 13.9665 203.317 14.7917 203.173 15.8496H209.051V15.6211C208.983 14.5885 208.708 13.8099 208.225 13.2852C207.743 12.752 207.074 12.4854 206.22 12.4854Z" fill="white"/>
</svg>
